<svg width="627" height="659" viewBox="0 0 627 659" fill="none" xmlns="http://www.w3.org/2000/svg">
<path d="M313.5 0L438.804 148.232L611.656 227.679L516.246 398.738L497.771 596.071L313.5 553.56L129.229 596.071L110.754 398.738L15.3438 227.679L188.196 148.232L313.5 0Z" fill="#4FABB0"/>
<path d="M313.401 392.398C312.198 392.388 311.024 392.147 309.878 391.673C308.732 391.19 307.7 390.419 306.781 389.358C305.863 388.288 305.134 386.877 304.594 385.125C304.054 383.373 303.784 381.219 303.784 378.662C303.784 376.295 303.992 374.126 304.409 372.156C304.826 370.187 305.451 368.482 306.284 367.043C307.117 365.603 308.159 364.491 309.409 363.705C310.659 362.909 312.122 362.511 313.798 362.511C315.37 362.511 316.758 362.838 317.96 363.491C319.163 364.135 320.138 365.035 320.886 366.19C321.634 367.346 322.103 368.676 322.293 370.182H319.679C319.414 368.648 318.784 367.384 317.79 366.389C316.795 365.395 315.465 364.898 313.798 364.898C311.412 364.898 309.565 366.006 308.259 368.222C306.952 370.428 306.294 373.562 306.284 377.625H306.469C306.933 376.763 307.529 376.02 308.259 375.395C308.997 374.76 309.835 374.268 310.773 373.918C311.71 373.558 312.695 373.378 313.727 373.378C315.347 373.378 316.829 373.79 318.173 374.614C319.518 375.428 320.593 376.55 321.398 377.98C322.203 379.401 322.605 381.025 322.605 382.852C322.605 384.585 322.222 386.181 321.455 387.639C320.697 389.098 319.627 390.258 318.244 391.119C316.871 391.981 315.257 392.407 313.401 392.398ZM313.401 390.011C314.67 390.011 315.801 389.689 316.795 389.045C317.799 388.402 318.59 387.54 319.168 386.46C319.745 385.371 320.034 384.169 320.034 382.852C320.034 381.536 319.745 380.343 319.168 379.273C318.59 378.203 317.799 377.35 316.795 376.716C315.801 376.081 314.67 375.764 313.401 375.764C312.435 375.764 311.535 375.963 310.702 376.361C309.868 376.749 309.144 377.284 308.528 377.966C307.922 378.638 307.458 379.41 307.136 380.281C306.824 381.152 306.705 382.066 306.781 383.023C306.885 384.358 307.231 385.556 307.818 386.616C308.415 387.668 309.191 388.496 310.148 389.102C311.114 389.708 312.198 390.011 313.401 390.011Z" fill="#2F94CD"/>
</svg>
