<svg width="572" height="274" viewBox="0 0 572 274" fill="none" xmlns="http://www.w3.org/2000/svg">
<path d="M330 179.5L451.5 130L330 88.5L153.781 187.204L330 179.5Z" fill="#F5F5F5"/>
<path d="M330 88.5L311 1L178 130L153.781 187.204L330 88.5Z" fill="#F5F5F5"/>
<path d="M178 130C229.94 79.6224 311 1 311 1M178 130L153.781 187.204M178 130L311 1M330 88.5L451.5 130L330 179.5L153.781 187.204M330 88.5L311 1M330 88.5L153.781 187.204M1.5 272.5L76.5 121L153.781 187.204M1.5 272.5L2.51099 271.934M1.5 272.5L571 260M2.51099 271.934L226.5 249.5L153.781 187.204M2.51099 271.934L153.781 187.204" stroke="#2F94CD"/>
</svg>
